<svg xmlns="http://www.w3.org/2000/svg" height="800" width="1200" viewBox="-52.2 -84 452.4 504"><g fill="none"><g transform="translate(0 258)"><path fill="#000" d="M53.583 16.781H38.284V78H19.142V16.781H.037L0 0h59zm154.032 0h-16.52V78h-18.993V16.781h-19.066L153 0h60zM80 78H62.14L62 25h18zm25.878-41.765l18.732-17.956h22.536l-23.67 22.552L150 78h-20.817l-17.707-25.82-5.598 5.314V78H87V0h18.878zm198.22 0l18.695-17.956h22.536l-23.67 22.552L348 78h-20.817l-17.67-25.82-5.415 5.314V78h-18.915L285 0h19.098z"/><circle r="9" cy="9" cx="71" fill="#000"/><path fill="#25f4ee" d="M210.43 45.946C210.435 29.217 223.312 15.306 240 14h-2.794C220.246 14.989 207 29.022 207 46s13.247 31.011 30.206 32H240c-16.73-1.309-29.622-15.284-29.57-32.054z"/><path fill="#fe2c55" d="M246.838 14.217H244c16.68 1.37 29.515 15.24 29.515 31.892 0 16.651-12.836 30.52-29.515 31.891h2.838C264.6 78 279 63.673 279 46c0-17.673-14.4-32-32.162-32z"/><path fill="#000" d="M242 61.566c-8.597 0-15.566-6.97-15.566-15.566 0-8.597 6.97-15.566 15.566-15.566 8.597 0 15.566 6.97 15.566 15.566-.02 8.588-6.978 15.546-15.566 15.566zM242 14c-17.673 0-32 14.327-32 32 0 17.673 14.327 32 32 32 17.673 0 32-14.327 32-32a32 32 0 00-32-32z"/></g><path fill="#25f4ee" d="M154 86.313v-8.542a63.77 63.77 0 00-9.015-.77c-29.234-.062-55.117 18.773-63.895 46.496-8.78 27.724 1.583 57.903 25.58 74.503-17.975-19.127-22.967-46.97-12.744-71.094 10.223-24.124 33.75-40.022 60.074-40.593z"/><path fill="#25f4ee" d="M155.419 182c16.191-.022 29.5-12.747 30.209-28.883v-144H212A49.228 49.228 0 01211.233 0h-36.07v143.86c-.6 16.219-13.94 29.066-30.21 29.092a30.757 30.757 0 01-13.953-3.48A30.302 30.302 0 00155.419 182zM262 58v-7.897A48.95 48.95 0 01235 42a49.565 49.565 0 0027 16z"/><path fill="#fe2c55" d="M233 41c-7.609-8.849-11.803-20.224-11.8-32H212c2.401 13.159 9.995 24.73 21 32zm-88.625 71.883c-14.01.071-26.171 9.598-29.499 23.106-3.327 13.509 3.035 27.531 15.43 34.011a30.049 30.049 0 01-2.456-31.492c5.21-10.12 15.697-16.487 27.146-16.478 3.053.038 6.085.508 9.004 1.396V86.698a64.333 64.333 0 00-9.004-.698h-1.618v27.93a31.522 31.522 0 00-9.003-1.047z"/><path fill="#fe2c55" d="M261.458 59v27.852c-18.099-.034-35.728-5.71-50.39-16.224v73.182c-.078 36.518-29.978 66.08-66.836 66.08A66.558 66.558 0 01106 197.913c18.668 19.893 47.72 26.44 73.236 16.507 25.516-9.934 42.298-34.326 42.303-61.488V79.959C236.251 90.403 253.902 96.005 272 95.974v-35.86A51.976 51.976 0 01261.458 59z"/><path fill="#000" d="M211.501 143.529V69.927A86.552 86.552 0 00262 86.034V58.02a50.474 50.474 0 01-27.57-16.107C222.82 34.437 214.808 22.534 212.275 9h-26.586v144.963c-.531 12.933-9.231 24.112-21.676 27.853-12.445 3.74-25.904-.776-33.535-11.256-12.393-6.498-18.754-20.562-15.427-34.11 3.326-13.548 15.487-23.103 29.494-23.175 3.053.027 6.086.5 9.002 1.401V86.664c-26.434.446-50.106 16.4-60.344 40.671-10.237 24.27-5.106 52.271 13.081 71.378a66.388 66.388 0 0038.331 11.274c36.886 0 66.809-29.732 66.886-66.458z"/></g></svg>